<?xml version="1.0" encoding="UTF-8"?>
<svg width="60in" height="60in" viewBox="0 0 60 60" xmlns="http://www.w3.org/2000/svg">
    <rect width="100%" height="100%" fill="#f0f0f0"/>
    <path d="M 26.869504831500294,23.739009663000587 C 26.869504831500294,17.489009663000587 23.0,18.25 23.0,12.0 A 7,7 0 0 1 37.0,12.0 C 37.0,18.25 33.130495168499706,17.489009663000587 33.130495168499706,23.739009663000587 A 7.0,7.0 0 0 0 36.98742426894024,30.419406826154514 C 42.40008304259298,33.544406826154514 43.67579849446715,29.812822173508927 49.088457268119896,32.93782217350893 A 7,7 0 0 1 42.088457268119896,45.06217782649107 C 36.67579849446715,41.93717782649107 39.269587874093276,38.9665835108449 33.85692910044053,35.8415835108449 A 7.0,7.0 0 0 0 26.143070899559472,35.8415835108449 C 20.73041212590673,38.9665835108449 23.32420150553285,41.93717782649108 17.91154273188011,45.06217782649108 A 7,7 0 0 1 10.911542731880106,32.937822173508934 C 16.324201505532848,29.81282217350893 17.59991695740702,33.54440682615452 23.012575731059762,30.419406826154518 A 7.0,7.0 0 0 0 26.869504831500294,23.739009663000587 Z" fill="none" stroke="#000000" stroke-width="0.05"/>
</svg>