<svg xmlns="http://www.w3.org/2000/svg" width="762.0mm" height="1524.0mm" viewBox="0 0 762.0 1524.0">
<rect x="0" y="0" width="762.0" height="1524.0" fill="none" stroke="black" stroke-width="0.1"/>
<path d="M 31.600000000000023 35.74506403026729 L 31.600000000000023 91.25493596973271 A 1.5875 1.5875 0 0 0 33.84506403026731 93.5 L 42.354935969732736 93.5 A 1.5875 1.5875 0 0 0 44.60000000000002 91.25493596973271 L 44.60000000000002 35.74506403026729 A 1.5875 1.5875 0 0 0 42.354935969732736 33.5 L 33.84506403026731 33.5 A 1.5875 1.5875 0 0 0 31.600000000000023 35.74506403026729 Z" fill="none" stroke="black" stroke-width="0.1"/>
<path d="M 107.80000000000001 35.74506403026729 L 107.80000000000001 91.25493596973271 A 1.5875 1.5875 0 0 0 110.0450640302673 93.5 L 118.55493596973272 93.5 A 1.5875 1.5875 0 0 0 120.80000000000001 91.25493596973271 L 120.80000000000001 35.74506403026729 A 1.5875 1.5875 0 0 0 118.55493596973272 33.5 L 110.0450640302673 33.5 A 1.5875 1.5875 0 0 0 107.80000000000001 35.74506403026729 Z" fill="none" stroke="black" stroke-width="0.1"/>
<path d="M 184.0 35.74506403026729 L 184.0 91.25493596973271 A 1.5875 1.5875 0 0 0 186.2450640302673 93.5 L 194.7549359697327 93.5 A 1.5875 1.5875 0 0 0 197.0 91.25493596973271 L 197.0 35.74506403026729 A 1.5875 1.5875 0 0 0 194.7549359697327 33.5 L 186.2450640302673 33.5 A 1.5875 1.5875 0 0 0 184.0 35.74506403026729 Z" fill="none" stroke="black" stroke-width="0.1"/>
<path d="M 260.2 35.74506403026729 L 260.2 91.25493596973271 A 1.5875 1.5875 0 0 0 262.4450640302673 93.5 L 270.9549359697327 93.5 A 1.5875 1.5875 0 0 0 273.2 91.25493596973271 L 273.2 35.74506403026729 A 1.5875 1.5875 0 0 0 270.9549359697327 33.5 L 262.4450640302673 33.5 A 1.5875 1.5875 0 0 0 260.2 35.74506403026729 Z" fill="none" stroke="black" stroke-width="0.1"/>
<path d="M 336.4 35.74506403026729 L 336.4 91.25493596973271 A 1.5875 1.5875 0 0 0 338.6450640302673 93.5 L 347.15493596973266 93.5 A 1.5875 1.5875 0 0 0 349.4 91.25493596973271 L 349.4 35.74506403026729 A 1.5875 1.5875 0 0 0 347.15493596973266 33.5 L 338.6450640302673 33.5 A 1.5875 1.5875 0 0 0 336.4 35.74506403026729 Z" fill="none" stroke="black" stroke-width="0.1"/>
<path d="M 412.59999999999997 35.74506403026729 L 412.59999999999997 91.25493596973271 A 1.5875 1.5875 0 0 0 414.8450640302673 93.5 L 423.35493596973265 93.5 A 1.5875 1.5875 0 0 0 425.59999999999997 91.25493596973271 L 425.59999999999997 35.74506403026729 A 1.5875 1.5875 0 0 0 423.35493596973265 33.5 L 414.8450640302673 33.5 A 1.5875 1.5875 0 0 0 412.59999999999997 35.74506403026729 Z" fill="none" stroke="black" stroke-width="0.1"/>
<path d="M 488.79999999999995 35.74506403026729 L 488.79999999999995 91.25493596973271 A 1.5875 1.5875 0 0 0 491.04506403026727 93.5 L 499.55493596973264 93.5 A 1.5875 1.5875 0 0 0 501.79999999999995 91.25493596973271 L 501.79999999999995 35.74506403026729 A 1.5875 1.5875 0 0 0 499.55493596973264 33.5 L 491.04506403026727 33.5 A 1.5875 1.5875 0 0 0 488.79999999999995 35.74506403026729 Z" fill="none" stroke="black" stroke-width="0.1"/>
<path d="M 564.9999999999999 35.74506403026729 L 564.9999999999999 91.25493596973271 A 1.5875 1.5875 0 0 0 567.2450640302671 93.5 L 575.7549359697326 93.5 A 1.5875 1.5875 0 0 0 577.9999999999999 91.25493596973271 L 577.9999999999999 35.74506403026729 A 1.5875 1.5875 0 0 0 575.7549359697326 33.5 L 567.2450640302671 33.5 A 1.5875 1.5875 0 0 0 564.9999999999999 35.74506403026729 Z" fill="none" stroke="black" stroke-width="0.1"/>
<path d="M 641.1999999999999 35.74506403026729 L 641.1999999999999 91.25493596973271 A 1.5875 1.5875 0 0 0 643.4450640302672 93.5 L 651.9549359697327 93.5 A 1.5875 1.5875 0 0 0 654.1999999999999 91.25493596973271 L 654.1999999999999 35.74506403026729 A 1.5875 1.5875 0 0 0 651.9549359697327 33.5 L 643.4450640302672 33.5 A 1.5875 1.5875 0 0 0 641.1999999999999 35.74506403026729 Z" fill="none" stroke="black" stroke-width="0.1"/>
<path d="M 717.4 35.74506403026729 L 717.4 91.25493596973271 A 1.5875 1.5875 0 0 0 719.6450640302672 93.5 L 728.1549359697327 93.5 A 1.5875 1.5875 0 0 0 730.4 91.25493596973271 L 730.4 35.74506403026729 A 1.5875 1.5875 0 0 0 728.1549359697327 33.5 L 719.6450640302672 33.5 A 1.5875 1.5875 0 0 0 717.4 35.74506403026729 Z" fill="none" stroke="black" stroke-width="0.1"/>
<path d="M 31.600000000000023 162.7450640302673 L 31.600000000000023 218.2549359697327 A 1.5875 1.5875 0 0 0 33.84506403026731 220.5 L 42.354935969732736 220.5 A 1.5875 1.5875 0 0 0 44.60000000000002 218.2549359697327 L 44.60000000000002 162.7450640302673 A 1.5875 1.5875 0 0 0 42.354935969732736 160.5 L 33.84506403026731 160.5 A 1.5875 1.5875 0 0 0 31.600000000000023 162.7450640302673 Z" fill="none" stroke="black" stroke-width="0.1"/>
<path d="M 107.80000000000001 162.7450640302673 L 107.80000000000001 218.2549359697327 A 1.5875 1.5875 0 0 0 110.0450640302673 220.5 L 118.55493596973272 220.5 A 1.5875 1.5875 0 0 0 120.80000000000001 218.2549359697327 L 120.80000000000001 162.7450640302673 A 1.5875 1.5875 0 0 0 118.55493596973272 160.5 L 110.0450640302673 160.5 A 1.5875 1.5875 0 0 0 107.80000000000001 162.7450640302673 Z" fill="none" stroke="black" stroke-width="0.1"/>
<path d="M 184.0 162.7450640302673 L 184.0 218.2549359697327 A 1.5875 1.5875 0 0 0 186.2450640302673 220.5 L 194.7549359697327 220.5 A 1.5875 1.5875 0 0 0 197.0 218.2549359697327 L 197.0 162.7450640302673 A 1.5875 1.5875 0 0 0 194.7549359697327 160.5 L 186.2450640302673 160.5 A 1.5875 1.5875 0 0 0 184.0 162.7450640302673 Z" fill="none" stroke="black" stroke-width="0.1"/>
<path d="M 260.2 162.7450640302673 L 260.2 218.2549359697327 A 1.5875 1.5875 0 0 0 262.4450640302673 220.5 L 270.9549359697327 220.5 A 1.5875 1.5875 0 0 0 273.2 218.2549359697327 L 273.2 162.7450640302673 A 1.5875 1.5875 0 0 0 270.9549359697327 160.5 L 262.4450640302673 160.5 A 1.5875 1.5875 0 0 0 260.2 162.7450640302673 Z" fill="none" stroke="black" stroke-width="0.1"/>
<path d="M 336.4 162.7450640302673 L 336.4 218.2549359697327 A 1.5875 1.5875 0 0 0 338.6450640302673 220.5 L 347.15493596973266 220.5 A 1.5875 1.5875 0 0 0 349.4 218.2549359697327 L 349.4 162.7450640302673 A 1.5875 1.5875 0 0 0 347.15493596973266 160.5 L 338.6450640302673 160.5 A 1.5875 1.5875 0 0 0 336.4 162.7450640302673 Z" fill="none" stroke="black" stroke-width="0.1"/>
<path d="M 412.59999999999997 162.7450640302673 L 412.59999999999997 218.2549359697327 A 1.5875 1.5875 0 0 0 414.8450640302673 220.5 L 423.35493596973265 220.5 A 1.5875 1.5875 0 0 0 425.59999999999997 218.2549359697327 L 425.59999999999997 162.7450640302673 A 1.5875 1.5875 0 0 0 423.35493596973265 160.5 L 414.8450640302673 160.5 A 1.5875 1.5875 0 0 0 412.59999999999997 162.7450640302673 Z" fill="none" stroke="black" stroke-width="0.1"/>
<path d="M 488.79999999999995 162.7450640302673 L 488.79999999999995 218.2549359697327 A 1.5875 1.5875 0 0 0 491.04506403026727 220.5 L 499.55493596973264 220.5 A 1.5875 1.5875 0 0 0 501.79999999999995 218.2549359697327 L 501.79999999999995 162.7450640302673 A 1.5875 1.5875 0 0 0 499.55493596973264 160.5 L 491.04506403026727 160.5 A 1.5875 1.5875 0 0 0 488.79999999999995 162.7450640302673 Z" fill="none" stroke="black" stroke-width="0.1"/>
<path d="M 564.9999999999999 162.7450640302673 L 564.9999999999999 218.2549359697327 A 1.5875 1.5875 0 0 0 567.2450640302671 220.5 L 575.7549359697326 220.5 A 1.5875 1.5875 0 0 0 577.9999999999999 218.2549359697327 L 577.9999999999999 162.7450640302673 A 1.5875 1.5875 0 0 0 575.7549359697326 160.5 L 567.2450640302671 160.5 A 1.5875 1.5875 0 0 0 564.9999999999999 162.7450640302673 Z" fill="none" stroke="black" stroke-width="0.1"/>
<path d="M 641.1999999999999 162.7450640302673 L 641.1999999999999 218.2549359697327 A 1.5875 1.5875 0 0 0 643.4450640302672 220.5 L 651.9549359697327 220.5 A 1.5875 1.5875 0 0 0 654.1999999999999 218.2549359697327 L 654.1999999999999 162.7450640302673 A 1.5875 1.5875 0 0 0 651.9549359697327 160.5 L 643.4450640302672 160.5 A 1.5875 1.5875 0 0 0 641.1999999999999 162.7450640302673 Z" fill="none" stroke="black" stroke-width="0.1"/>
<path d="M 717.4 162.7450640302673 L 717.4 218.2549359697327 A 1.5875 1.5875 0 0 0 719.6450640302672 220.5 L 728.1549359697327 220.5 A 1.5875 1.5875 0 0 0 730.4 218.2549359697327 L 730.4 162.7450640302673 A 1.5875 1.5875 0 0 0 728.1549359697327 160.5 L 719.6450640302672 160.5 A 1.5875 1.5875 0 0 0 717.4 162.7450640302673 Z" fill="none" stroke="black" stroke-width="0.1"/>
<path d="M 31.600000000000023 289.7450640302673 L 31.600000000000023 345.2549359697327 A 1.5875 1.5875 0 0 0 33.84506403026731 347.5 L 42.354935969732736 347.5 A 1.5875 1.5875 0 0 0 44.60000000000002 345.2549359697327 L 44.60000000000002 289.7450640302673 A 1.5875 1.5875 0 0 0 42.354935969732736 287.5 L 33.84506403026731 287.5 A 1.5875 1.5875 0 0 0 31.600000000000023 289.7450640302673 Z" fill="none" stroke="black" stroke-width="0.1"/>
<path d="M 107.80000000000001 289.7450640302673 L 107.80000000000001 345.2549359697327 A 1.5875 1.5875 0 0 0 110.0450640302673 347.5 L 118.55493596973272 347.5 A 1.5875 1.5875 0 0 0 120.80000000000001 345.2549359697327 L 120.80000000000001 289.7450640302673 A 1.5875 1.5875 0 0 0 118.55493596973272 287.5 L 110.0450640302673 287.5 A 1.5875 1.5875 0 0 0 107.80000000000001 289.7450640302673 Z" fill="none" stroke="black" stroke-width="0.1"/>
<path d="M 184.0 289.7450640302673 L 184.0 345.2549359697327 A 1.5875 1.5875 0 0 0 186.2450640302673 347.5 L 194.7549359697327 347.5 A 1.5875 1.5875 0 0 0 197.0 345.2549359697327 L 197.0 289.7450640302673 A 1.5875 1.5875 0 0 0 194.7549359697327 287.5 L 186.2450640302673 287.5 A 1.5875 1.5875 0 0 0 184.0 289.7450640302673 Z" fill="none" stroke="black" stroke-width="0.1"/>
<path d="M 260.2 289.7450640302673 L 260.2 345.2549359697327 A 1.5875 1.5875 0 0 0 262.4450640302673 347.5 L 270.9549359697327 347.5 A 1.5875 1.5875 0 0 0 273.2 345.2549359697327 L 273.2 289.7450640302673 A 1.5875 1.5875 0 0 0 270.9549359697327 287.5 L 262.4450640302673 287.5 A 1.5875 1.5875 0 0 0 260.2 289.7450640302673 Z" fill="none" stroke="black" stroke-width="0.1"/>
<path d="M 336.4 289.7450640302673 L 336.4 345.2549359697327 A 1.5875 1.5875 0 0 0 338.6450640302673 347.5 L 347.15493596973266 347.5 A 1.5875 1.5875 0 0 0 349.4 345.2549359697327 L 349.4 289.7450640302673 A 1.5875 1.5875 0 0 0 347.15493596973266 287.5 L 338.6450640302673 287.5 A 1.5875 1.5875 0 0 0 336.4 289.7450640302673 Z" fill="none" stroke="black" stroke-width="0.1"/>
<path d="M 412.59999999999997 289.7450640302673 L 412.59999999999997 345.2549359697327 A 1.5875 1.5875 0 0 0 414.8450640302673 347.5 L 423.35493596973265 347.5 A 1.5875 1.5875 0 0 0 425.59999999999997 345.2549359697327 L 425.59999999999997 289.7450640302673 A 1.5875 1.5875 0 0 0 423.35493596973265 287.5 L 414.8450640302673 287.5 A 1.5875 1.5875 0 0 0 412.59999999999997 289.7450640302673 Z" fill="none" stroke="black" stroke-width="0.1"/>
<path d="M 488.79999999999995 289.7450640302673 L 488.79999999999995 345.2549359697327 A 1.5875 1.5875 0 0 0 491.04506403026727 347.5 L 499.55493596973264 347.5 A 1.5875 1.5875 0 0 0 501.79999999999995 345.2549359697327 L 501.79999999999995 289.7450640302673 A 1.5875 1.5875 0 0 0 499.55493596973264 287.5 L 491.04506403026727 287.5 A 1.5875 1.5875 0 0 0 488.79999999999995 289.7450640302673 Z" fill="none" stroke="black" stroke-width="0.1"/>
<path d="M 564.9999999999999 289.7450640302673 L 564.9999999999999 345.2549359697327 A 1.5875 1.5875 0 0 0 567.2450640302671 347.5 L 575.7549359697326 347.5 A 1.5875 1.5875 0 0 0 577.9999999999999 345.2549359697327 L 577.9999999999999 289.7450640302673 A 1.5875 1.5875 0 0 0 575.7549359697326 287.5 L 567.2450640302671 287.5 A 1.5875 1.5875 0 0 0 564.9999999999999 289.7450640302673 Z" fill="none" stroke="black" stroke-width="0.1"/>
<path d="M 641.1999999999999 289.7450640302673 L 641.1999999999999 345.2549359697327 A 1.5875 1.5875 0 0 0 643.4450640302672 347.5 L 651.9549359697327 347.5 A 1.5875 1.5875 0 0 0 654.1999999999999 345.2549359697327 L 654.1999999999999 289.7450640302673 A 1.5875 1.5875 0 0 0 651.9549359697327 287.5 L 643.4450640302672 287.5 A 1.5875 1.5875 0 0 0 641.1999999999999 289.7450640302673 Z" fill="none" stroke="black" stroke-width="0.1"/>
<path d="M 717.4 289.7450640302673 L 717.4 345.2549359697327 A 1.5875 1.5875 0 0 0 719.6450640302672 347.5 L 728.1549359697327 347.5 A 1.5875 1.5875 0 0 0 730.4 345.2549359697327 L 730.4 289.7450640302673 A 1.5875 1.5875 0 0 0 728.1549359697327 287.5 L 719.6450640302672 287.5 A 1.5875 1.5875 0 0 0 717.4 289.7450640302673 Z" fill="none" stroke="black" stroke-width="0.1"/>
<path d="M 31.600000000000023 416.7450640302673 L 31.600000000000023 472.2549359697327 A 1.5875 1.5875 0 0 0 33.84506403026731 474.5 L 42.354935969732736 474.5 A 1.5875 1.5875 0 0 0 44.60000000000002 472.2549359697327 L 44.60000000000002 416.7450640302673 A 1.5875 1.5875 0 0 0 42.354935969732736 414.5 L 33.84506403026731 414.5 A 1.5875 1.5875 0 0 0 31.600000000000023 416.7450640302673 Z" fill="none" stroke="black" stroke-width="0.1"/>
<path d="M 107.80000000000001 416.7450640302673 L 107.80000000000001 472.2549359697327 A 1.5875 1.5875 0 0 0 110.0450640302673 474.5 L 118.55493596973272 474.5 A 1.5875 1.5875 0 0 0 120.80000000000001 472.2549359697327 L 120.80000000000001 416.7450640302673 A 1.5875 1.5875 0 0 0 118.55493596973272 414.5 L 110.0450640302673 414.5 A 1.5875 1.5875 0 0 0 107.80000000000001 416.7450640302673 Z" fill="none" stroke="black" stroke-width="0.1"/>
<path d="M 184.0 416.7450640302673 L 184.0 472.2549359697327 A 1.5875 1.5875 0 0 0 186.2450640302673 474.5 L 194.7549359697327 474.5 A 1.5875 1.5875 0 0 0 197.0 472.2549359697327 L 197.0 416.7450640302673 A 1.5875 1.5875 0 0 0 194.7549359697327 414.5 L 186.2450640302673 414.5 A 1.5875 1.5875 0 0 0 184.0 416.7450640302673 Z" fill="none" stroke="black" stroke-width="0.1"/>
<path d="M 260.2 416.7450640302673 L 260.2 472.2549359697327 A 1.5875 1.5875 0 0 0 262.4450640302673 474.5 L 270.9549359697327 474.5 A 1.5875 1.5875 0 0 0 273.2 472.2549359697327 L 273.2 416.7450640302673 A 1.5875 1.5875 0 0 0 270.9549359697327 414.5 L 262.4450640302673 414.5 A 1.5875 1.5875 0 0 0 260.2 416.7450640302673 Z" fill="none" stroke="black" stroke-width="0.1"/>
<path d="M 336.4 416.7450640302673 L 336.4 472.2549359697327 A 1.5875 1.5875 0 0 0 338.6450640302673 474.5 L 347.15493596973266 474.5 A 1.5875 1.5875 0 0 0 349.4 472.2549359697327 L 349.4 416.7450640302673 A 1.5875 1.5875 0 0 0 347.15493596973266 414.5 L 338.6450640302673 414.5 A 1.5875 1.5875 0 0 0 336.4 416.7450640302673 Z" fill="none" stroke="black" stroke-width="0.1"/>
<path d="M 412.59999999999997 416.7450640302673 L 412.59999999999997 472.2549359697327 A 1.5875 1.5875 0 0 0 414.8450640302673 474.5 L 423.35493596973265 474.5 A 1.5875 1.5875 0 0 0 425.59999999999997 472.2549359697327 L 425.59999999999997 416.7450640302673 A 1.5875 1.5875 0 0 0 423.35493596973265 414.5 L 414.8450640302673 414.5 A 1.5875 1.5875 0 0 0 412.59999999999997 416.7450640302673 Z" fill="none" stroke="black" stroke-width="0.1"/>
<path d="M 488.79999999999995 416.7450640302673 L 488.79999999999995 472.2549359697327 A 1.5875 1.5875 0 0 0 491.04506403026727 474.5 L 499.55493596973264 474.5 A 1.5875 1.5875 0 0 0 501.79999999999995 472.2549359697327 L 501.79999999999995 416.7450640302673 A 1.5875 1.5875 0 0 0 499.55493596973264 414.5 L 491.04506403026727 414.5 A 1.5875 1.5875 0 0 0 488.79999999999995 416.7450640302673 Z" fill="none" stroke="black" stroke-width="0.1"/>
<path d="M 564.9999999999999 416.7450640302673 L 564.9999999999999 472.2549359697327 A 1.5875 1.5875 0 0 0 567.2450640302671 474.5 L 575.7549359697326 474.5 A 1.5875 1.5875 0 0 0 577.9999999999999 472.2549359697327 L 577.9999999999999 416.7450640302673 A 1.5875 1.5875 0 0 0 575.7549359697326 414.5 L 567.2450640302671 414.5 A 1.5875 1.5875 0 0 0 564.9999999999999 416.7450640302673 Z" fill="none" stroke="black" stroke-width="0.1"/>
<path d="M 641.1999999999999 416.7450640302673 L 641.1999999999999 472.2549359697327 A 1.5875 1.5875 0 0 0 643.4450640302672 474.5 L 651.9549359697327 474.5 A 1.5875 1.5875 0 0 0 654.1999999999999 472.2549359697327 L 654.1999999999999 416.7450640302673 A 1.5875 1.5875 0 0 0 651.9549359697327 414.5 L 643.4450640302672 414.5 A 1.5875 1.5875 0 0 0 641.1999999999999 416.7450640302673 Z" fill="none" stroke="black" stroke-width="0.1"/>
<path d="M 717.4 416.7450640302673 L 717.4 472.2549359697327 A 1.5875 1.5875 0 0 0 719.6450640302672 474.5 L 728.1549359697327 474.5 A 1.5875 1.5875 0 0 0 730.4 472.2549359697327 L 730.4 416.7450640302673 A 1.5875 1.5875 0 0 0 728.1549359697327 414.5 L 719.6450640302672 414.5 A 1.5875 1.5875 0 0 0 717.4 416.7450640302673 Z" fill="none" stroke="black" stroke-width="0.1"/>
<path d="M 31.600000000000023 543.7450640302673 L 31.600000000000023 599.2549359697327 A 1.5875 1.5875 0 0 0 33.84506403026731 601.5 L 42.354935969732736 601.5 A 1.5875 1.5875 0 0 0 44.60000000000002 599.2549359697327 L 44.60000000000002 543.7450640302673 A 1.5875 1.5875 0 0 0 42.354935969732736 541.5 L 33.84506403026731 541.5 A 1.5875 1.5875 0 0 0 31.600000000000023 543.7450640302673 Z" fill="none" stroke="black" stroke-width="0.1"/>
<path d="M 107.80000000000001 543.7450640302673 L 107.80000000000001 599.2549359697327 A 1.5875 1.5875 0 0 0 110.0450640302673 601.5 L 118.55493596973272 601.5 A 1.5875 1.5875 0 0 0 120.80000000000001 599.2549359697327 L 120.80000000000001 543.7450640302673 A 1.5875 1.5875 0 0 0 118.55493596973272 541.5 L 110.0450640302673 541.5 A 1.5875 1.5875 0 0 0 107.80000000000001 543.7450640302673 Z" fill="none" stroke="black" stroke-width="0.1"/>
<path d="M 184.0 543.7450640302673 L 184.0 599.2549359697327 A 1.5875 1.5875 0 0 0 186.2450640302673 601.5 L 194.7549359697327 601.5 A 1.5875 1.5875 0 0 0 197.0 599.2549359697327 L 197.0 543.7450640302673 A 1.5875 1.5875 0 0 0 194.7549359697327 541.5 L 186.2450640302673 541.5 A 1.5875 1.5875 0 0 0 184.0 543.7450640302673 Z" fill="none" stroke="black" stroke-width="0.1"/>
<path d="M 260.2 543.7450640302673 L 260.2 599.2549359697327 A 1.5875 1.5875 0 0 0 262.4450640302673 601.5 L 270.9549359697327 601.5 A 1.5875 1.5875 0 0 0 273.2 599.2549359697327 L 273.2 543.7450640302673 A 1.5875 1.5875 0 0 0 270.9549359697327 541.5 L 262.4450640302673 541.5 A 1.5875 1.5875 0 0 0 260.2 543.7450640302673 Z" fill="none" stroke="black" stroke-width="0.1"/>
<path d="M 336.4 543.7450640302673 L 336.4 599.2549359697327 A 1.5875 1.5875 0 0 0 338.6450640302673 601.5 L 347.15493596973266 601.5 A 1.5875 1.5875 0 0 0 349.4 599.2549359697327 L 349.4 543.7450640302673 A 1.5875 1.5875 0 0 0 347.15493596973266 541.5 L 338.6450640302673 541.5 A 1.5875 1.5875 0 0 0 336.4 543.7450640302673 Z" fill="none" stroke="black" stroke-width="0.1"/>
<path d="M 412.59999999999997 543.7450640302673 L 412.59999999999997 599.2549359697327 A 1.5875 1.5875 0 0 0 414.8450640302673 601.5 L 423.35493596973265 601.5 A 1.5875 1.5875 0 0 0 425.59999999999997 599.2549359697327 L 425.59999999999997 543.7450640302673 A 1.5875 1.5875 0 0 0 423.35493596973265 541.5 L 414.8450640302673 541.5 A 1.5875 1.5875 0 0 0 412.59999999999997 543.7450640302673 Z" fill="none" stroke="black" stroke-width="0.1"/>
<path d="M 488.79999999999995 543.7450640302673 L 488.79999999999995 599.2549359697327 A 1.5875 1.5875 0 0 0 491.04506403026727 601.5 L 499.55493596973264 601.5 A 1.5875 1.5875 0 0 0 501.79999999999995 599.2549359697327 L 501.79999999999995 543.7450640302673 A 1.5875 1.5875 0 0 0 499.55493596973264 541.5 L 491.04506403026727 541.5 A 1.5875 1.5875 0 0 0 488.79999999999995 543.7450640302673 Z" fill="none" stroke="black" stroke-width="0.1"/>
<path d="M 564.9999999999999 543.7450640302673 L 564.9999999999999 599.2549359697327 A 1.5875 1.5875 0 0 0 567.2450640302671 601.5 L 575.7549359697326 601.5 A 1.5875 1.5875 0 0 0 577.9999999999999 599.2549359697327 L 577.9999999999999 543.7450640302673 A 1.5875 1.5875 0 0 0 575.7549359697326 541.5 L 567.2450640302671 541.5 A 1.5875 1.5875 0 0 0 564.9999999999999 543.7450640302673 Z" fill="none" stroke="black" stroke-width="0.1"/>
<path d="M 641.1999999999999 543.7450640302673 L 641.1999999999999 599.2549359697327 A 1.5875 1.5875 0 0 0 643.4450640302672 601.5 L 651.9549359697327 601.5 A 1.5875 1.5875 0 0 0 654.1999999999999 599.2549359697327 L 654.1999999999999 543.7450640302673 A 1.5875 1.5875 0 0 0 651.9549359697327 541.5 L 643.4450640302672 541.5 A 1.5875 1.5875 0 0 0 641.1999999999999 543.7450640302673 Z" fill="none" stroke="black" stroke-width="0.1"/>
<path d="M 717.4 543.7450640302673 L 717.4 599.2549359697327 A 1.5875 1.5875 0 0 0 719.6450640302672 601.5 L 728.1549359697327 601.5 A 1.5875 1.5875 0 0 0 730.4 599.2549359697327 L 730.4 543.7450640302673 A 1.5875 1.5875 0 0 0 728.1549359697327 541.5 L 719.6450640302672 541.5 A 1.5875 1.5875 0 0 0 717.4 543.7450640302673 Z" fill="none" stroke="black" stroke-width="0.1"/>
<path d="M 31.600000000000023 670.7450640302673 L 31.600000000000023 726.2549359697327 A 1.5875 1.5875 0 0 0 33.84506403026731 728.5 L 42.354935969732736 728.5 A 1.5875 1.5875 0 0 0 44.60000000000002 726.2549359697327 L 44.60000000000002 670.7450640302673 A 1.5875 1.5875 0 0 0 42.354935969732736 668.5 L 33.84506403026731 668.5 A 1.5875 1.5875 0 0 0 31.600000000000023 670.7450640302673 Z" fill="none" stroke="black" stroke-width="0.1"/>
<path d="M 107.80000000000001 670.7450640302673 L 107.80000000000001 726.2549359697327 A 1.5875 1.5875 0 0 0 110.0450640302673 728.5 L 118.55493596973272 728.5 A 1.5875 1.5875 0 0 0 120.80000000000001 726.2549359697327 L 120.80000000000001 670.7450640302673 A 1.5875 1.5875 0 0 0 118.55493596973272 668.5 L 110.0450640302673 668.5 A 1.5875 1.5875 0 0 0 107.80000000000001 670.7450640302673 Z" fill="none" stroke="black" stroke-width="0.1"/>
<path d="M 184.0 670.7450640302673 L 184.0 726.2549359697327 A 1.5875 1.5875 0 0 0 186.2450640302673 728.5 L 194.7549359697327 728.5 A 1.5875 1.5875 0 0 0 197.0 726.2549359697327 L 197.0 670.7450640302673 A 1.5875 1.5875 0 0 0 194.7549359697327 668.5 L 186.2450640302673 668.5 A 1.5875 1.5875 0 0 0 184.0 670.7450640302673 Z" fill="none" stroke="black" stroke-width="0.1"/>
<path d="M 260.2 670.7450640302673 L 260.2 726.2549359697327 A 1.5875 1.5875 0 0 0 262.4450640302673 728.5 L 270.9549359697327 728.5 A 1.5875 1.5875 0 0 0 273.2 726.2549359697327 L 273.2 670.7450640302673 A 1.5875 1.5875 0 0 0 270.9549359697327 668.5 L 262.4450640302673 668.5 A 1.5875 1.5875 0 0 0 260.2 670.7450640302673 Z" fill="none" stroke="black" stroke-width="0.1"/>
<path d="M 336.4 670.7450640302673 L 336.4 726.2549359697327 A 1.5875 1.5875 0 0 0 338.6450640302673 728.5 L 347.15493596973266 728.5 A 1.5875 1.5875 0 0 0 349.4 726.2549359697327 L 349.4 670.7450640302673 A 1.5875 1.5875 0 0 0 347.15493596973266 668.5 L 338.6450640302673 668.5 A 1.5875 1.5875 0 0 0 336.4 670.7450640302673 Z" fill="none" stroke="black" stroke-width="0.1"/>
<path d="M 412.59999999999997 670.7450640302673 L 412.59999999999997 726.2549359697327 A 1.5875 1.5875 0 0 0 414.8450640302673 728.5 L 423.35493596973265 728.5 A 1.5875 1.5875 0 0 0 425.59999999999997 726.2549359697327 L 425.59999999999997 670.7450640302673 A 1.5875 1.5875 0 0 0 423.35493596973265 668.5 L 414.8450640302673 668.5 A 1.5875 1.5875 0 0 0 412.59999999999997 670.7450640302673 Z" fill="none" stroke="black" stroke-width="0.1"/>
<path d="M 488.79999999999995 670.7450640302673 L 488.79999999999995 726.2549359697327 A 1.5875 1.5875 0 0 0 491.04506403026727 728.5 L 499.55493596973264 728.5 A 1.5875 1.5875 0 0 0 501.79999999999995 726.2549359697327 L 501.79999999999995 670.7450640302673 A 1.5875 1.5875 0 0 0 499.55493596973264 668.5 L 491.04506403026727 668.5 A 1.5875 1.5875 0 0 0 488.79999999999995 670.7450640302673 Z" fill="none" stroke="black" stroke-width="0.1"/>
<path d="M 564.9999999999999 670.7450640302673 L 564.9999999999999 726.2549359697327 A 1.5875 1.5875 0 0 0 567.2450640302671 728.5 L 575.7549359697326 728.5 A 1.5875 1.5875 0 0 0 577.9999999999999 726.2549359697327 L 577.9999999999999 670.7450640302673 A 1.5875 1.5875 0 0 0 575.7549359697326 668.5 L 567.2450640302671 668.5 A 1.5875 1.5875 0 0 0 564.9999999999999 670.7450640302673 Z" fill="none" stroke="black" stroke-width="0.1"/>
<path d="M 641.1999999999999 670.7450640302673 L 641.1999999999999 726.2549359697327 A 1.5875 1.5875 0 0 0 643.4450640302672 728.5 L 651.9549359697327 728.5 A 1.5875 1.5875 0 0 0 654.1999999999999 726.2549359697327 L 654.1999999999999 670.7450640302673 A 1.5875 1.5875 0 0 0 651.9549359697327 668.5 L 643.4450640302672 668.5 A 1.5875 1.5875 0 0 0 641.1999999999999 670.7450640302673 Z" fill="none" stroke="black" stroke-width="0.1"/>
<path d="M 717.4 670.7450640302673 L 717.4 726.2549359697327 A 1.5875 1.5875 0 0 0 719.6450640302672 728.5 L 728.1549359697327 728.5 A 1.5875 1.5875 0 0 0 730.4 726.2549359697327 L 730.4 670.7450640302673 A 1.5875 1.5875 0 0 0 728.1549359697327 668.5 L 719.6450640302672 668.5 A 1.5875 1.5875 0 0 0 717.4 670.7450640302673 Z" fill="none" stroke="black" stroke-width="0.1"/>
<path d="M 31.600000000000023 797.7450640302673 L 31.600000000000023 853.2549359697327 A 1.5875 1.5875 0 0 0 33.84506403026731 855.5 L 42.354935969732736 855.5 A 1.5875 1.5875 0 0 0 44.60000000000002 853.2549359697327 L 44.60000000000002 797.7450640302673 A 1.5875 1.5875 0 0 0 42.354935969732736 795.5 L 33.84506403026731 795.5 A 1.5875 1.5875 0 0 0 31.600000000000023 797.7450640302673 Z" fill="none" stroke="black" stroke-width="0.1"/>
<path d="M 107.80000000000001 797.7450640302673 L 107.80000000000001 853.2549359697327 A 1.5875 1.5875 0 0 0 110.0450640302673 855.5 L 118.55493596973272 855.5 A 1.5875 1.5875 0 0 0 120.80000000000001 853.2549359697327 L 120.80000000000001 797.7450640302673 A 1.5875 1.5875 0 0 0 118.55493596973272 795.5 L 110.0450640302673 795.5 A 1.5875 1.5875 0 0 0 107.80000000000001 797.7450640302673 Z" fill="none" stroke="black" stroke-width="0.1"/>
<path d="M 184.0 797.7450640302673 L 184.0 853.2549359697327 A 1.5875 1.5875 0 0 0 186.2450640302673 855.5 L 194.7549359697327 855.5 A 1.5875 1.5875 0 0 0 197.0 853.2549359697327 L 197.0 797.7450640302673 A 1.5875 1.5875 0 0 0 194.7549359697327 795.5 L 186.2450640302673 795.5 A 1.5875 1.5875 0 0 0 184.0 797.7450640302673 Z" fill="none" stroke="black" stroke-width="0.1"/>
<path d="M 260.2 797.7450640302673 L 260.2 853.2549359697327 A 1.5875 1.5875 0 0 0 262.4450640302673 855.5 L 270.9549359697327 855.5 A 1.5875 1.5875 0 0 0 273.2 853.2549359697327 L 273.2 797.7450640302673 A 1.5875 1.5875 0 0 0 270.9549359697327 795.5 L 262.4450640302673 795.5 A 1.5875 1.5875 0 0 0 260.2 797.7450640302673 Z" fill="none" stroke="black" stroke-width="0.1"/>
<path d="M 336.4 797.7450640302673 L 336.4 853.2549359697327 A 1.5875 1.5875 0 0 0 338.6450640302673 855.5 L 347.15493596973266 855.5 A 1.5875 1.5875 0 0 0 349.4 853.2549359697327 L 349.4 797.7450640302673 A 1.5875 1.5875 0 0 0 347.15493596973266 795.5 L 338.6450640302673 795.5 A 1.5875 1.5875 0 0 0 336.4 797.7450640302673 Z" fill="none" stroke="black" stroke-width="0.1"/>
<path d="M 412.59999999999997 797.7450640302673 L 412.59999999999997 853.2549359697327 A 1.5875 1.5875 0 0 0 414.8450640302673 855.5 L 423.35493596973265 855.5 A 1.5875 1.5875 0 0 0 425.59999999999997 853.2549359697327 L 425.59999999999997 797.7450640302673 A 1.5875 1.5875 0 0 0 423.35493596973265 795.5 L 414.8450640302673 795.5 A 1.5875 1.5875 0 0 0 412.59999999999997 797.7450640302673 Z" fill="none" stroke="black" stroke-width="0.1"/>
<path d="M 488.79999999999995 797.7450640302673 L 488.79999999999995 853.2549359697327 A 1.5875 1.5875 0 0 0 491.04506403026727 855.5 L 499.55493596973264 855.5 A 1.5875 1.5875 0 0 0 501.79999999999995 853.2549359697327 L 501.79999999999995 797.7450640302673 A 1.5875 1.5875 0 0 0 499.55493596973264 795.5 L 491.04506403026727 795.5 A 1.5875 1.5875 0 0 0 488.79999999999995 797.7450640302673 Z" fill="none" stroke="black" stroke-width="0.1"/>
<path d="M 564.9999999999999 797.7450640302673 L 564.9999999999999 853.2549359697327 A 1.5875 1.5875 0 0 0 567.2450640302671 855.5 L 575.7549359697326 855.5 A 1.5875 1.5875 0 0 0 577.9999999999999 853.2549359697327 L 577.9999999999999 797.7450640302673 A 1.5875 1.5875 0 0 0 575.7549359697326 795.5 L 567.2450640302671 795.5 A 1.5875 1.5875 0 0 0 564.9999999999999 797.7450640302673 Z" fill="none" stroke="black" stroke-width="0.1"/>
<path d="M 641.1999999999999 797.7450640302673 L 641.1999999999999 853.2549359697327 A 1.5875 1.5875 0 0 0 643.4450640302672 855.5 L 651.9549359697327 855.5 A 1.5875 1.5875 0 0 0 654.1999999999999 853.2549359697327 L 654.1999999999999 797.7450640302673 A 1.5875 1.5875 0 0 0 651.9549359697327 795.5 L 643.4450640302672 795.5 A 1.5875 1.5875 0 0 0 641.1999999999999 797.7450640302673 Z" fill="none" stroke="black" stroke-width="0.1"/>
<path d="M 717.4 797.7450640302673 L 717.4 853.2549359697327 A 1.5875 1.5875 0 0 0 719.6450640302672 855.5 L 728.1549359697327 855.5 A 1.5875 1.5875 0 0 0 730.4 853.2549359697327 L 730.4 797.7450640302673 A 1.5875 1.5875 0 0 0 728.1549359697327 795.5 L 719.6450640302672 795.5 A 1.5875 1.5875 0 0 0 717.4 797.7450640302673 Z" fill="none" stroke="black" stroke-width="0.1"/>
<path d="M 31.600000000000023 924.7450640302673 L 31.600000000000023 980.2549359697327 A 1.5875 1.5875 0 0 0 33.84506403026731 982.5 L 42.354935969732736 982.5 A 1.5875 1.5875 0 0 0 44.60000000000002 980.2549359697327 L 44.60000000000002 924.7450640302673 A 1.5875 1.5875 0 0 0 42.354935969732736 922.5 L 33.84506403026731 922.5 A 1.5875 1.5875 0 0 0 31.600000000000023 924.7450640302673 Z" fill="none" stroke="black" stroke-width="0.1"/>
<path d="M 107.80000000000001 924.7450640302673 L 107.80000000000001 980.2549359697327 A 1.5875 1.5875 0 0 0 110.0450640302673 982.5 L 118.55493596973272 982.5 A 1.5875 1.5875 0 0 0 120.80000000000001 980.2549359697327 L 120.80000000000001 924.7450640302673 A 1.5875 1.5875 0 0 0 118.55493596973272 922.5 L 110.0450640302673 922.5 A 1.5875 1.5875 0 0 0 107.80000000000001 924.7450640302673 Z" fill="none" stroke="black" stroke-width="0.1"/>
<path d="M 184.0 924.7450640302673 L 184.0 980.2549359697327 A 1.5875 1.5875 0 0 0 186.2450640302673 982.5 L 194.7549359697327 982.5 A 1.5875 1.5875 0 0 0 197.0 980.2549359697327 L 197.0 924.7450640302673 A 1.5875 1.5875 0 0 0 194.7549359697327 922.5 L 186.2450640302673 922.5 A 1.5875 1.5875 0 0 0 184.0 924.7450640302673 Z" fill="none" stroke="black" stroke-width="0.1"/>
<path d="M 260.2 924.7450640302673 L 260.2 980.2549359697327 A 1.5875 1.5875 0 0 0 262.4450640302673 982.5 L 270.9549359697327 982.5 A 1.5875 1.5875 0 0 0 273.2 980.2549359697327 L 273.2 924.7450640302673 A 1.5875 1.5875 0 0 0 270.9549359697327 922.5 L 262.4450640302673 922.5 A 1.5875 1.5875 0 0 0 260.2 924.7450640302673 Z" fill="none" stroke="black" stroke-width="0.1"/>
<path d="M 336.4 924.7450640302673 L 336.4 980.2549359697327 A 1.5875 1.5875 0 0 0 338.6450640302673 982.5 L 347.15493596973266 982.5 A 1.5875 1.5875 0 0 0 349.4 980.2549359697327 L 349.4 924.7450640302673 A 1.5875 1.5875 0 0 0 347.15493596973266 922.5 L 338.6450640302673 922.5 A 1.5875 1.5875 0 0 0 336.4 924.7450640302673 Z" fill="none" stroke="black" stroke-width="0.1"/>
<path d="M 412.59999999999997 924.7450640302673 L 412.59999999999997 980.2549359697327 A 1.5875 1.5875 0 0 0 414.8450640302673 982.5 L 423.35493596973265 982.5 A 1.5875 1.5875 0 0 0 425.59999999999997 980.2549359697327 L 425.59999999999997 924.7450640302673 A 1.5875 1.5875 0 0 0 423.35493596973265 922.5 L 414.8450640302673 922.5 A 1.5875 1.5875 0 0 0 412.59999999999997 924.7450640302673 Z" fill="none" stroke="black" stroke-width="0.1"/>
<path d="M 488.79999999999995 924.7450640302673 L 488.79999999999995 980.2549359697327 A 1.5875 1.5875 0 0 0 491.04506403026727 982.5 L 499.55493596973264 982.5 A 1.5875 1.5875 0 0 0 501.79999999999995 980.2549359697327 L 501.79999999999995 924.7450640302673 A 1.5875 1.5875 0 0 0 499.55493596973264 922.5 L 491.04506403026727 922.5 A 1.5875 1.5875 0 0 0 488.79999999999995 924.7450640302673 Z" fill="none" stroke="black" stroke-width="0.1"/>
<path d="M 564.9999999999999 924.7450640302673 L 564.9999999999999 980.2549359697327 A 1.5875 1.5875 0 0 0 567.2450640302671 982.5 L 575.7549359697326 982.5 A 1.5875 1.5875 0 0 0 577.9999999999999 980.2549359697327 L 577.9999999999999 924.7450640302673 A 1.5875 1.5875 0 0 0 575.7549359697326 922.5 L 567.2450640302671 922.5 A 1.5875 1.5875 0 0 0 564.9999999999999 924.7450640302673 Z" fill="none" stroke="black" stroke-width="0.1"/>
<path d="M 641.1999999999999 924.7450640302673 L 641.1999999999999 980.2549359697327 A 1.5875 1.5875 0 0 0 643.4450640302672 982.5 L 651.9549359697327 982.5 A 1.5875 1.5875 0 0 0 654.1999999999999 980.2549359697327 L 654.1999999999999 924.7450640302673 A 1.5875 1.5875 0 0 0 651.9549359697327 922.5 L 643.4450640302672 922.5 A 1.5875 1.5875 0 0 0 641.1999999999999 924.7450640302673 Z" fill="none" stroke="black" stroke-width="0.1"/>
<path d="M 717.4 924.7450640302673 L 717.4 980.2549359697327 A 1.5875 1.5875 0 0 0 719.6450640302672 982.5 L 728.1549359697327 982.5 A 1.5875 1.5875 0 0 0 730.4 980.2549359697327 L 730.4 924.7450640302673 A 1.5875 1.5875 0 0 0 728.1549359697327 922.5 L 719.6450640302672 922.5 A 1.5875 1.5875 0 0 0 717.4 924.7450640302673 Z" fill="none" stroke="black" stroke-width="0.1"/>
<path d="M 31.600000000000023 1051.7450640302673 L 31.600000000000023 1107.2549359697327 A 1.5875 1.5875 0 0 0 33.84506403026731 1109.5 L 42.354935969732736 1109.5 A 1.5875 1.5875 0 0 0 44.60000000000002 1107.2549359697327 L 44.60000000000002 1051.7450640302673 A 1.5875 1.5875 0 0 0 42.354935969732736 1049.5 L 33.84506403026731 1049.5 A 1.5875 1.5875 0 0 0 31.600000000000023 1051.7450640302673 Z" fill="none" stroke="black" stroke-width="0.1"/>
<path d="M 107.80000000000001 1051.7450640302673 L 107.80000000000001 1107.2549359697327 A 1.5875 1.5875 0 0 0 110.0450640302673 1109.5 L 118.55493596973272 1109.5 A 1.5875 1.5875 0 0 0 120.80000000000001 1107.2549359697327 L 120.80000000000001 1051.7450640302673 A 1.5875 1.5875 0 0 0 118.55493596973272 1049.5 L 110.0450640302673 1049.5 A 1.5875 1.5875 0 0 0 107.80000000000001 1051.7450640302673 Z" fill="none" stroke="black" stroke-width="0.1"/>
<path d="M 184.0 1051.7450640302673 L 184.0 1107.2549359697327 A 1.5875 1.5875 0 0 0 186.2450640302673 1109.5 L 194.7549359697327 1109.5 A 1.5875 1.5875 0 0 0 197.0 1107.2549359697327 L 197.0 1051.7450640302673 A 1.5875 1.5875 0 0 0 194.7549359697327 1049.5 L 186.2450640302673 1049.5 A 1.5875 1.5875 0 0 0 184.0 1051.7450640302673 Z" fill="none" stroke="black" stroke-width="0.1"/>
<path d="M 260.2 1051.7450640302673 L 260.2 1107.2549359697327 A 1.5875 1.5875 0 0 0 262.4450640302673 1109.5 L 270.9549359697327 1109.5 A 1.5875 1.5875 0 0 0 273.2 1107.2549359697327 L 273.2 1051.7450640302673 A 1.5875 1.5875 0 0 0 270.9549359697327 1049.5 L 262.4450640302673 1049.5 A 1.5875 1.5875 0 0 0 260.2 1051.7450640302673 Z" fill="none" stroke="black" stroke-width="0.1"/>
<path d="M 336.4 1051.7450640302673 L 336.4 1107.2549359697327 A 1.5875 1.5875 0 0 0 338.6450640302673 1109.5 L 347.15493596973266 1109.5 A 1.5875 1.5875 0 0 0 349.4 1107.2549359697327 L 349.4 1051.7450640302673 A 1.5875 1.5875 0 0 0 347.15493596973266 1049.5 L 338.6450640302673 1049.5 A 1.5875 1.5875 0 0 0 336.4 1051.7450640302673 Z" fill="none" stroke="black" stroke-width="0.1"/>
<path d="M 412.59999999999997 1051.7450640302673 L 412.59999999999997 1107.2549359697327 A 1.5875 1.5875 0 0 0 414.8450640302673 1109.5 L 423.35493596973265 1109.5 A 1.5875 1.5875 0 0 0 425.59999999999997 1107.2549359697327 L 425.59999999999997 1051.7450640302673 A 1.5875 1.5875 0 0 0 423.35493596973265 1049.5 L 414.8450640302673 1049.5 A 1.5875 1.5875 0 0 0 412.59999999999997 1051.7450640302673 Z" fill="none" stroke="black" stroke-width="0.1"/>
<path d="M 488.79999999999995 1051.7450640302673 L 488.79999999999995 1107.2549359697327 A 1.5875 1.5875 0 0 0 491.04506403026727 1109.5 L 499.55493596973264 1109.5 A 1.5875 1.5875 0 0 0 501.79999999999995 1107.2549359697327 L 501.79999999999995 1051.7450640302673 A 1.5875 1.5875 0 0 0 499.55493596973264 1049.5 L 491.04506403026727 1049.5 A 1.5875 1.5875 0 0 0 488.79999999999995 1051.7450640302673 Z" fill="none" stroke="black" stroke-width="0.1"/>
<path d="M 564.9999999999999 1051.7450640302673 L 564.9999999999999 1107.2549359697327 A 1.5875 1.5875 0 0 0 567.2450640302671 1109.5 L 575.7549359697326 1109.5 A 1.5875 1.5875 0 0 0 577.9999999999999 1107.2549359697327 L 577.9999999999999 1051.7450640302673 A 1.5875 1.5875 0 0 0 575.7549359697326 1049.5 L 567.2450640302671 1049.5 A 1.5875 1.5875 0 0 0 564.9999999999999 1051.7450640302673 Z" fill="none" stroke="black" stroke-width="0.1"/>
<path d="M 641.1999999999999 1051.7450640302673 L 641.1999999999999 1107.2549359697327 A 1.5875 1.5875 0 0 0 643.4450640302672 1109.5 L 651.9549359697327 1109.5 A 1.5875 1.5875 0 0 0 654.1999999999999 1107.2549359697327 L 654.1999999999999 1051.7450640302673 A 1.5875 1.5875 0 0 0 651.9549359697327 1049.5 L 643.4450640302672 1049.5 A 1.5875 1.5875 0 0 0 641.1999999999999 1051.7450640302673 Z" fill="none" stroke="black" stroke-width="0.1"/>
<path d="M 717.4 1051.7450640302673 L 717.4 1107.2549359697327 A 1.5875 1.5875 0 0 0 719.6450640302672 1109.5 L 728.1549359697327 1109.5 A 1.5875 1.5875 0 0 0 730.4 1107.2549359697327 L 730.4 1051.7450640302673 A 1.5875 1.5875 0 0 0 728.1549359697327 1049.5 L 719.6450640302672 1049.5 A 1.5875 1.5875 0 0 0 717.4 1051.7450640302673 Z" fill="none" stroke="black" stroke-width="0.1"/>
<path d="M 31.600000000000023 1178.7450640302673 L 31.600000000000023 1234.2549359697327 A 1.5875 1.5875 0 0 0 33.84506403026731 1236.5 L 42.354935969732736 1236.5 A 1.5875 1.5875 0 0 0 44.60000000000002 1234.2549359697327 L 44.60000000000002 1178.7450640302673 A 1.5875 1.5875 0 0 0 42.354935969732736 1176.5 L 33.84506403026731 1176.5 A 1.5875 1.5875 0 0 0 31.600000000000023 1178.7450640302673 Z" fill="none" stroke="black" stroke-width="0.1"/>
<path d="M 107.80000000000001 1178.7450640302673 L 107.80000000000001 1234.2549359697327 A 1.5875 1.5875 0 0 0 110.0450640302673 1236.5 L 118.55493596973272 1236.5 A 1.5875 1.5875 0 0 0 120.80000000000001 1234.2549359697327 L 120.80000000000001 1178.7450640302673 A 1.5875 1.5875 0 0 0 118.55493596973272 1176.5 L 110.0450640302673 1176.5 A 1.5875 1.5875 0 0 0 107.80000000000001 1178.7450640302673 Z" fill="none" stroke="black" stroke-width="0.1"/>
<path d="M 184.0 1178.7450640302673 L 184.0 1234.2549359697327 A 1.5875 1.5875 0 0 0 186.2450640302673 1236.5 L 194.7549359697327 1236.5 A 1.5875 1.5875 0 0 0 197.0 1234.2549359697327 L 197.0 1178.7450640302673 A 1.5875 1.5875 0 0 0 194.7549359697327 1176.5 L 186.2450640302673 1176.5 A 1.5875 1.5875 0 0 0 184.0 1178.7450640302673 Z" fill="none" stroke="black" stroke-width="0.1"/>
<path d="M 260.2 1178.7450640302673 L 260.2 1234.2549359697327 A 1.5875 1.5875 0 0 0 262.4450640302673 1236.5 L 270.9549359697327 1236.5 A 1.5875 1.5875 0 0 0 273.2 1234.2549359697327 L 273.2 1178.7450640302673 A 1.5875 1.5875 0 0 0 270.9549359697327 1176.5 L 262.4450640302673 1176.5 A 1.5875 1.5875 0 0 0 260.2 1178.7450640302673 Z" fill="none" stroke="black" stroke-width="0.1"/>
<path d="M 336.4 1178.7450640302673 L 336.4 1234.2549359697327 A 1.5875 1.5875 0 0 0 338.6450640302673 1236.5 L 347.15493596973266 1236.5 A 1.5875 1.5875 0 0 0 349.4 1234.2549359697327 L 349.4 1178.7450640302673 A 1.5875 1.5875 0 0 0 347.15493596973266 1176.5 L 338.6450640302673 1176.5 A 1.5875 1.5875 0 0 0 336.4 1178.7450640302673 Z" fill="none" stroke="black" stroke-width="0.1"/>
<path d="M 412.59999999999997 1178.7450640302673 L 412.59999999999997 1234.2549359697327 A 1.5875 1.5875 0 0 0 414.8450640302673 1236.5 L 423.35493596973265 1236.5 A 1.5875 1.5875 0 0 0 425.59999999999997 1234.2549359697327 L 425.59999999999997 1178.7450640302673 A 1.5875 1.5875 0 0 0 423.35493596973265 1176.5 L 414.8450640302673 1176.5 A 1.5875 1.5875 0 0 0 412.59999999999997 1178.7450640302673 Z" fill="none" stroke="black" stroke-width="0.1"/>
<path d="M 488.79999999999995 1178.7450640302673 L 488.79999999999995 1234.2549359697327 A 1.5875 1.5875 0 0 0 491.04506403026727 1236.5 L 499.55493596973264 1236.5 A 1.5875 1.5875 0 0 0 501.79999999999995 1234.2549359697327 L 501.79999999999995 1178.7450640302673 A 1.5875 1.5875 0 0 0 499.55493596973264 1176.5 L 491.04506403026727 1176.5 A 1.5875 1.5875 0 0 0 488.79999999999995 1178.7450640302673 Z" fill="none" stroke="black" stroke-width="0.1"/>
<path d="M 564.9999999999999 1178.7450640302673 L 564.9999999999999 1234.2549359697327 A 1.5875 1.5875 0 0 0 567.2450640302671 1236.5 L 575.7549359697326 1236.5 A 1.5875 1.5875 0 0 0 577.9999999999999 1234.2549359697327 L 577.9999999999999 1178.7450640302673 A 1.5875 1.5875 0 0 0 575.7549359697326 1176.5 L 567.2450640302671 1176.5 A 1.5875 1.5875 0 0 0 564.9999999999999 1178.7450640302673 Z" fill="none" stroke="black" stroke-width="0.1"/>
<path d="M 641.1999999999999 1178.7450640302673 L 641.1999999999999 1234.2549359697327 A 1.5875 1.5875 0 0 0 643.4450640302672 1236.5 L 651.9549359697327 1236.5 A 1.5875 1.5875 0 0 0 654.1999999999999 1234.2549359697327 L 654.1999999999999 1178.7450640302673 A 1.5875 1.5875 0 0 0 651.9549359697327 1176.5 L 643.4450640302672 1176.5 A 1.5875 1.5875 0 0 0 641.1999999999999 1178.7450640302673 Z" fill="none" stroke="black" stroke-width="0.1"/>
<path d="M 717.4 1178.7450640302673 L 717.4 1234.2549359697327 A 1.5875 1.5875 0 0 0 719.6450640302672 1236.5 L 728.1549359697327 1236.5 A 1.5875 1.5875 0 0 0 730.4 1234.2549359697327 L 730.4 1178.7450640302673 A 1.5875 1.5875 0 0 0 728.1549359697327 1176.5 L 719.6450640302672 1176.5 A 1.5875 1.5875 0 0 0 717.4 1178.7450640302673 Z" fill="none" stroke="black" stroke-width="0.1"/>
<path d="M 31.600000000000023 1305.7450640302673 L 31.600000000000023 1361.2549359697327 A 1.5875 1.5875 0 0 0 33.84506403026731 1363.5 L 42.354935969732736 1363.5 A 1.5875 1.5875 0 0 0 44.60000000000002 1361.2549359697327 L 44.60000000000002 1305.7450640302673 A 1.5875 1.5875 0 0 0 42.354935969732736 1303.5 L 33.84506403026731 1303.5 A 1.5875 1.5875 0 0 0 31.600000000000023 1305.7450640302673 Z" fill="none" stroke="black" stroke-width="0.1"/>
<path d="M 107.80000000000001 1305.7450640302673 L 107.80000000000001 1361.2549359697327 A 1.5875 1.5875 0 0 0 110.0450640302673 1363.5 L 118.55493596973272 1363.5 A 1.5875 1.5875 0 0 0 120.80000000000001 1361.2549359697327 L 120.80000000000001 1305.7450640302673 A 1.5875 1.5875 0 0 0 118.55493596973272 1303.5 L 110.0450640302673 1303.5 A 1.5875 1.5875 0 0 0 107.80000000000001 1305.7450640302673 Z" fill="none" stroke="black" stroke-width="0.1"/>
<path d="M 184.0 1305.7450640302673 L 184.0 1361.2549359697327 A 1.5875 1.5875 0 0 0 186.2450640302673 1363.5 L 194.7549359697327 1363.5 A 1.5875 1.5875 0 0 0 197.0 1361.2549359697327 L 197.0 1305.7450640302673 A 1.5875 1.5875 0 0 0 194.7549359697327 1303.5 L 186.2450640302673 1303.5 A 1.5875 1.5875 0 0 0 184.0 1305.7450640302673 Z" fill="none" stroke="black" stroke-width="0.1"/>
<path d="M 260.2 1305.7450640302673 L 260.2 1361.2549359697327 A 1.5875 1.5875 0 0 0 262.4450640302673 1363.5 L 270.9549359697327 1363.5 A 1.5875 1.5875 0 0 0 273.2 1361.2549359697327 L 273.2 1305.7450640302673 A 1.5875 1.5875 0 0 0 270.9549359697327 1303.5 L 262.4450640302673 1303.5 A 1.5875 1.5875 0 0 0 260.2 1305.7450640302673 Z" fill="none" stroke="black" stroke-width="0.1"/>
<path d="M 336.4 1305.7450640302673 L 336.4 1361.2549359697327 A 1.5875 1.5875 0 0 0 338.6450640302673 1363.5 L 347.15493596973266 1363.5 A 1.5875 1.5875 0 0 0 349.4 1361.2549359697327 L 349.4 1305.7450640302673 A 1.5875 1.5875 0 0 0 347.15493596973266 1303.5 L 338.6450640302673 1303.5 A 1.5875 1.5875 0 0 0 336.4 1305.7450640302673 Z" fill="none" stroke="black" stroke-width="0.1"/>
<path d="M 412.59999999999997 1305.7450640302673 L 412.59999999999997 1361.2549359697327 A 1.5875 1.5875 0 0 0 414.8450640302673 1363.5 L 423.35493596973265 1363.5 A 1.5875 1.5875 0 0 0 425.59999999999997 1361.2549359697327 L 425.59999999999997 1305.7450640302673 A 1.5875 1.5875 0 0 0 423.35493596973265 1303.5 L 414.8450640302673 1303.5 A 1.5875 1.5875 0 0 0 412.59999999999997 1305.7450640302673 Z" fill="none" stroke="black" stroke-width="0.1"/>
<path d="M 488.79999999999995 1305.7450640302673 L 488.79999999999995 1361.2549359697327 A 1.5875 1.5875 0 0 0 491.04506403026727 1363.5 L 499.55493596973264 1363.5 A 1.5875 1.5875 0 0 0 501.79999999999995 1361.2549359697327 L 501.79999999999995 1305.7450640302673 A 1.5875 1.5875 0 0 0 499.55493596973264 1303.5 L 491.04506403026727 1303.5 A 1.5875 1.5875 0 0 0 488.79999999999995 1305.7450640302673 Z" fill="none" stroke="black" stroke-width="0.1"/>
<path d="M 564.9999999999999 1305.7450640302673 L 564.9999999999999 1361.2549359697327 A 1.5875 1.5875 0 0 0 567.2450640302671 1363.5 L 575.7549359697326 1363.5 A 1.5875 1.5875 0 0 0 577.9999999999999 1361.2549359697327 L 577.9999999999999 1305.7450640302673 A 1.5875 1.5875 0 0 0 575.7549359697326 1303.5 L 567.2450640302671 1303.5 A 1.5875 1.5875 0 0 0 564.9999999999999 1305.7450640302673 Z" fill="none" stroke="black" stroke-width="0.1"/>
<path d="M 641.1999999999999 1305.7450640302673 L 641.1999999999999 1361.2549359697327 A 1.5875 1.5875 0 0 0 643.4450640302672 1363.5 L 651.9549359697327 1363.5 A 1.5875 1.5875 0 0 0 654.1999999999999 1361.2549359697327 L 654.1999999999999 1305.7450640302673 A 1.5875 1.5875 0 0 0 651.9549359697327 1303.5 L 643.4450640302672 1303.5 A 1.5875 1.5875 0 0 0 641.1999999999999 1305.7450640302673 Z" fill="none" stroke="black" stroke-width="0.1"/>
<path d="M 717.4 1305.7450640302673 L 717.4 1361.2549359697327 A 1.5875 1.5875 0 0 0 719.6450640302672 1363.5 L 728.1549359697327 1363.5 A 1.5875 1.5875 0 0 0 730.4 1361.2549359697327 L 730.4 1305.7450640302673 A 1.5875 1.5875 0 0 0 728.1549359697327 1303.5 L 719.6450640302672 1303.5 A 1.5875 1.5875 0 0 0 717.4 1305.7450640302673 Z" fill="none" stroke="black" stroke-width="0.1"/>
<path d="M 31.600000000000023 1432.7450640302673 L 31.600000000000023 1488.2549359697327 A 1.5875 1.5875 0 0 0 33.84506403026731 1490.5 L 42.354935969732736 1490.5 A 1.5875 1.5875 0 0 0 44.60000000000002 1488.2549359697327 L 44.60000000000002 1432.7450640302673 A 1.5875 1.5875 0 0 0 42.354935969732736 1430.5 L 33.84506403026731 1430.5 A 1.5875 1.5875 0 0 0 31.600000000000023 1432.7450640302673 Z" fill="none" stroke="black" stroke-width="0.1"/>
<path d="M 107.80000000000001 1432.7450640302673 L 107.80000000000001 1488.2549359697327 A 1.5875 1.5875 0 0 0 110.0450640302673 1490.5 L 118.55493596973272 1490.5 A 1.5875 1.5875 0 0 0 120.80000000000001 1488.2549359697327 L 120.80000000000001 1432.7450640302673 A 1.5875 1.5875 0 0 0 118.55493596973272 1430.5 L 110.0450640302673 1430.5 A 1.5875 1.5875 0 0 0 107.80000000000001 1432.7450640302673 Z" fill="none" stroke="black" stroke-width="0.1"/>
<path d="M 184.0 1432.7450640302673 L 184.0 1488.2549359697327 A 1.5875 1.5875 0 0 0 186.2450640302673 1490.5 L 194.7549359697327 1490.5 A 1.5875 1.5875 0 0 0 197.0 1488.2549359697327 L 197.0 1432.7450640302673 A 1.5875 1.5875 0 0 0 194.7549359697327 1430.5 L 186.2450640302673 1430.5 A 1.5875 1.5875 0 0 0 184.0 1432.7450640302673 Z" fill="none" stroke="black" stroke-width="0.1"/>
<path d="M 260.2 1432.7450640302673 L 260.2 1488.2549359697327 A 1.5875 1.5875 0 0 0 262.4450640302673 1490.5 L 270.9549359697327 1490.5 A 1.5875 1.5875 0 0 0 273.2 1488.2549359697327 L 273.2 1432.7450640302673 A 1.5875 1.5875 0 0 0 270.9549359697327 1430.5 L 262.4450640302673 1430.5 A 1.5875 1.5875 0 0 0 260.2 1432.7450640302673 Z" fill="none" stroke="black" stroke-width="0.1"/>
<path d="M 336.4 1432.7450640302673 L 336.4 1488.2549359697327 A 1.5875 1.5875 0 0 0 338.6450640302673 1490.5 L 347.15493596973266 1490.5 A 1.5875 1.5875 0 0 0 349.4 1488.2549359697327 L 349.4 1432.7450640302673 A 1.5875 1.5875 0 0 0 347.15493596973266 1430.5 L 338.6450640302673 1430.5 A 1.5875 1.5875 0 0 0 336.4 1432.7450640302673 Z" fill="none" stroke="black" stroke-width="0.1"/>
<path d="M 412.59999999999997 1432.7450640302673 L 412.59999999999997 1488.2549359697327 A 1.5875 1.5875 0 0 0 414.8450640302673 1490.5 L 423.35493596973265 1490.5 A 1.5875 1.5875 0 0 0 425.59999999999997 1488.2549359697327 L 425.59999999999997 1432.7450640302673 A 1.5875 1.5875 0 0 0 423.35493596973265 1430.5 L 414.8450640302673 1430.5 A 1.5875 1.5875 0 0 0 412.59999999999997 1432.7450640302673 Z" fill="none" stroke="black" stroke-width="0.1"/>
<path d="M 488.79999999999995 1432.7450640302673 L 488.79999999999995 1488.2549359697327 A 1.5875 1.5875 0 0 0 491.04506403026727 1490.5 L 499.55493596973264 1490.5 A 1.5875 1.5875 0 0 0 501.79999999999995 1488.2549359697327 L 501.79999999999995 1432.7450640302673 A 1.5875 1.5875 0 0 0 499.55493596973264 1430.5 L 491.04506403026727 1430.5 A 1.5875 1.5875 0 0 0 488.79999999999995 1432.7450640302673 Z" fill="none" stroke="black" stroke-width="0.1"/>
<path d="M 564.9999999999999 1432.7450640302673 L 564.9999999999999 1488.2549359697327 A 1.5875 1.5875 0 0 0 567.2450640302671 1490.5 L 575.7549359697326 1490.5 A 1.5875 1.5875 0 0 0 577.9999999999999 1488.2549359697327 L 577.9999999999999 1432.7450640302673 A 1.5875 1.5875 0 0 0 575.7549359697326 1430.5 L 567.2450640302671 1430.5 A 1.5875 1.5875 0 0 0 564.9999999999999 1432.7450640302673 Z" fill="none" stroke="black" stroke-width="0.1"/>
<path d="M 641.1999999999999 1432.7450640302673 L 641.1999999999999 1488.2549359697327 A 1.5875 1.5875 0 0 0 643.4450640302672 1490.5 L 651.9549359697327 1490.5 A 1.5875 1.5875 0 0 0 654.1999999999999 1488.2549359697327 L 654.1999999999999 1432.7450640302673 A 1.5875 1.5875 0 0 0 651.9549359697327 1430.5 L 643.4450640302672 1430.5 A 1.5875 1.5875 0 0 0 641.1999999999999 1432.7450640302673 Z" fill="none" stroke="black" stroke-width="0.1"/>
<path d="M 717.4 1432.7450640302673 L 717.4 1488.2549359697327 A 1.5875 1.5875 0 0 0 719.6450640302672 1490.5 L 728.1549359697327 1490.5 A 1.5875 1.5875 0 0 0 730.4 1488.2549359697327 L 730.4 1432.7450640302673 A 1.5875 1.5875 0 0 0 728.1549359697327 1430.5 L 719.6450640302672 1430.5 A 1.5875 1.5875 0 0 0 717.4 1432.7450640302673 Z" fill="none" stroke="black" stroke-width="0.1"/>
</svg>